<svg width="19" height="20" viewBox="0 0 19 20" fill="none" xmlns="http://www.w3.org/2000/svg">
<path d="M0.538086 8.50149C0.538086 7.95038 0.538086 7.67482 0.609134 7.42105C0.672068 7.19626 0.775495 6.98484 0.914334 6.79717C1.07107 6.5853 1.28863 6.41612 1.72375 6.07777L8.23307 1.0161C8.57025 0.753903 8.73884 0.622805 8.925 0.572411C9.08926 0.527946 9.2624 0.527946 9.42666 0.572411C9.61282 0.622805 9.78141 0.753903 10.1186 1.0161L16.6279 6.07777C17.063 6.41612 17.2806 6.5853 17.4373 6.79717C17.5762 6.98484 17.6796 7.19626 17.7425 7.42105C17.8136 7.67482 17.8136 7.95038 17.8136 8.50149V15.4437C17.8136 16.5184 17.8136 17.0558 17.6044 17.4664C17.4203 17.8274 17.1267 18.121 16.7655 18.305C16.3549 18.5142 15.8174 18.5142 14.7424 18.5142H3.60928C2.53426 18.5142 1.99675 18.5142 1.58615 18.305C1.22497 18.121 0.931328 17.8274 0.747299 17.4664C0.538086 17.0558 0.538086 16.5185 0.538086 15.4437V8.50149Z" fill="black" stroke="black" stroke-width="1.07635" stroke-linecap="round" stroke-linejoin="round"/>
</svg>
