<svg width="18" height="20" viewBox="0 0 18 20" fill="none" xmlns="http://www.w3.org/2000/svg">
<path d="M8.80957 11.8438C11.8481 11.8438 14.5322 13.3951 16.2285 15.7676C16.515 16.1682 16.8807 16.6255 16.8701 17.2451C16.8657 17.499 16.7918 17.7436 16.6982 17.9424C16.6052 18.1399 16.4623 18.3558 16.2637 18.5205C15.9964 18.742 15.7002 18.8244 15.4248 18.8594C15.1725 18.8914 14.8695 18.8896 14.5596 18.8896H3.06055C2.75053 18.8896 2.44768 18.8914 2.19531 18.8594C1.91977 18.8244 1.62287 18.7423 1.35547 18.5205C1.15687 18.3558 1.01487 18.1398 0.921875 17.9424C0.828283 17.7436 0.754394 17.499 0.75 17.2451C0.739407 16.6255 1.10516 16.1682 1.3916 15.7676C3.08785 13.3952 5.77128 11.8439 8.80957 11.8438ZM8.80957 0.75C11.4362 0.75 13.4961 2.98808 13.4961 5.66016C13.496 8.33217 11.4361 10.5703 8.80957 10.5703C6.18321 10.5701 4.1241 8.33202 4.12402 5.66016C4.12402 2.98822 6.18316 0.750244 8.80957 0.75Z" fill="black" stroke="black" stroke-width="1.5" stroke-linecap="round" stroke-linejoin="round"/>
</svg>
