<svg width="35" height="35" viewBox="0 0 35 35" fill="none" xmlns="http://www.w3.org/2000/svg">
<path d="M9.84766 20.0586C10.3133 20.0589 10.6914 20.4366 10.6914 20.9023V21.0723C10.6914 21.8003 10.6923 22.2967 10.7236 22.6797C10.7541 23.0519 10.8088 23.2439 10.877 23.3779C11.0407 23.699 11.3029 23.9614 11.624 24.125C11.758 24.1931 11.9502 24.2479 12.3223 24.2783C12.7053 24.3096 13.2018 24.3105 13.9297 24.3105H14.0996C14.5653 24.3108 14.9434 24.6886 14.9434 25.1543C14.9431 25.6198 14.5651 25.9978 14.0996 25.998H13.9297C13.2296 25.998 12.6531 25.9981 12.1855 25.96C11.7082 25.9209 11.2689 25.8375 10.8574 25.6279C10.2189 25.3026 9.69949 24.7829 9.37402 24.1445C9.16437 23.7331 9.08103 23.2938 9.04199 22.8164C9.0038 22.3488 9.00391 21.7725 9.00391 21.0723V20.9023C9.00391 20.4365 9.38187 20.0587 9.84766 20.0586ZM25.1553 20.0586C25.621 20.0589 25.999 20.4366 25.999 20.9023V21.0723C25.999 21.7724 25.9991 22.3488 25.9609 22.8164C25.9219 23.2937 25.8385 23.7331 25.6289 24.1445C25.3035 24.7828 24.7838 25.3025 24.1455 25.6279C23.7341 25.8374 23.2946 25.9209 22.8174 25.96C22.3498 25.9981 21.7733 25.998 21.0732 25.998H20.9033C20.4377 25.9979 20.0598 25.6199 20.0596 25.1543C20.0596 24.6885 20.4375 24.3107 20.9033 24.3105H21.0732C21.8011 24.3105 22.2977 24.3096 22.6807 24.2783C23.0525 24.2479 23.2449 24.1931 23.3789 24.125C23.6999 23.9613 23.9623 23.6989 24.126 23.3779C24.1941 23.2439 24.2488 23.0517 24.2793 22.6797C24.3106 22.2967 24.3115 21.8003 24.3115 21.0723V20.9023C24.3115 20.4365 24.6895 20.0587 25.1553 20.0586ZM14.0996 9.00195C14.5653 9.00222 14.9434 9.38094 14.9434 9.84668C14.9431 10.3122 14.5651 10.6902 14.0996 10.6904H13.9297C13.2018 10.6904 12.7053 10.6914 12.3223 10.7227C11.9503 10.7531 11.758 10.8079 11.624 10.876C11.3029 11.0397 11.0406 11.3019 10.877 11.623C10.8089 11.7571 10.7541 11.9492 10.7236 12.3213C10.6924 12.7043 10.6914 13.2007 10.6914 13.9287V14.0986C10.6911 14.5641 10.3132 14.9421 9.84766 14.9424C9.38203 14.9422 9.00417 14.5642 9.00391 14.0986V13.9287C9.00391 13.2286 9.00383 12.6522 9.04199 12.1846C9.081 11.7072 9.16448 11.2679 9.37402 10.8564C9.69941 10.218 10.219 9.69848 10.8574 9.37305C11.2688 9.1635 11.7082 9.08003 12.1855 9.04102C12.6531 9.00286 13.2296 9.00195 13.9297 9.00195H14.0996ZM21.0732 9.00195C21.7733 9.00195 22.3498 9.00284 22.8174 9.04102C23.2948 9.08005 23.734 9.16339 24.1455 9.37305C24.784 9.69851 25.3035 10.2179 25.6289 10.8564C25.8385 11.2679 25.9219 11.7072 25.9609 12.1846C25.9991 12.6522 25.999 13.2286 25.999 13.9287V14.0986C25.9988 14.5641 25.6208 14.9421 25.1553 14.9424C24.6896 14.9422 24.3118 14.5642 24.3115 14.0986V13.9287C24.3115 13.2007 24.3106 12.7043 24.2793 12.3213C24.2489 11.9492 24.1941 11.7571 24.126 11.623C23.9623 11.3019 23.7001 11.0397 23.3789 10.876C23.2449 10.8078 23.0529 10.7531 22.6807 10.7227C22.2977 10.6914 21.8012 10.6904 21.0732 10.6904H20.9033C20.4377 10.6903 20.0598 10.3123 20.0596 9.84668C20.0596 9.38086 20.4375 9.00209 20.9033 9.00195H21.0732Z" fill="white"/>
<path d="M26.6572 16.7129C27.0914 16.7131 27.4434 17.0648 27.4434 17.499C27.4434 17.9333 27.0914 18.2849 26.6572 18.2852H8.34277C7.90838 18.2852 7.55664 17.9334 7.55664 17.499C7.55664 17.0646 7.90838 16.7129 8.34277 16.7129H26.6572Z" fill="white"/>
</svg>
